<svg id="Capa_1" data-name="Capa 1" xmlns="http://www.w3.org/2000/svg" xmlns:xlink="http://www.w3.org/1999/xlink" viewBox="0 0 421.33 406.84"><defs><style>.cls-1{fill:none;}.cls-2{fill:#ecdbeb;}.cls-3{fill:#aed9e2;}.cls-4{clip-path:url(#clip-path);}.cls-5{fill:#e6cbe3;}.cls-6{fill:#eddcec;}.cls-7{fill:#834e9a;}.cls-8{fill:#f29cb9;}.cls-9{fill:#acd6e7;}.cls-10{fill:#afd1da;}.cls-11{clip-path:url(#clip-path-2);}.cls-12{fill:#6f4292;}.cls-13{fill:#814e9a;}.cls-14{clip-path:url(#clip-path-3);}.cls-15{fill:#f9fbf5;}</style><clipPath id="clip-path" transform="translate(-8.8 -6.11)"><rect class="cls-1" x="8.8" y="42.28" width="370.67" height="370.67" rx="185.33"/></clipPath><clipPath id="clip-path-2" transform="translate(-8.8 -6.11)"><circle class="cls-1" cx="98.7" cy="212.77" r="37.68"/></clipPath><clipPath id="clip-path-3" transform="translate(-8.8 -6.11)"><circle class="cls-1" cx="281.22" cy="212.77" r="37.68"/></clipPath></defs><title>GATITOGIN</title><path class="cls-2" d="M231.86,89.08s57.22-59.18,83-74.81c0,0,23.23-19.82,31.16,15.35,0,0,19,75.66,7.37,161.64L242.63,167Z" transform="translate(-8.8 -6.11)"/><path class="cls-3" d="M224.09,111s57.22-59.18,83-74.82c0,0,23.22-19.82,31.16,15.36,0,0,19,75.65,7.36,161.63L234.85,188.89Z" transform="translate(-8.8 -6.11)"/><path class="cls-2" d="M154.35,84.69s-58.67-58.11-85-73.27c0,0-23.77-19.39-31.45,15.93,0,0-18.47,76-5.78,161.76l112.12-26.34Z" transform="translate(-8.8 -6.11)"/><path class="cls-3" d="M162,114.74S103.36,56.62,77,41.47c0,0-23.77-19.39-31.45,15.93,0,0-18.46,76-5.78,161.75l112.12-26.33Z" transform="translate(-8.8 -6.11)"/><g class="cls-4"><rect class="cls-5" y="36.17" width="370.67" height="370.67" rx="185.33"/><rect class="cls-6" x="50.67" y="36.17" width="370.67" height="370.67" rx="185.33"/></g><path class="cls-7" d="M74.61,132.65A58.31,58.31,0,0,0,40.12,153.4a8.2,8.2,0,0,0-2.19,5.31,7.67,7.67,0,0,0,2.19,5.3,7.57,7.57,0,0,0,5.31,2.2c1.85-.09,4.1-.68,5.3-2.2a52.47,52.47,0,0,1,4.21-4.73c.75-.74,1.52-1.46,2.32-2.16l1.21-1,.61-.5c1-.79-1.15.86-.42.33a55.74,55.74,0,0,1,11.13-6.41l-1.79.76a51.33,51.33,0,0,1,10.6-3.16,7.5,7.5,0,0,0,5.23-9.23c-1.33-4.14-5.08-6-9.22-5.24Z" transform="translate(-8.8 -6.11)"/><path class="cls-7" d="M304.55,147.53l.79.1-2-.27a36.27,36.27,0,0,1,8.78,2.39l-1.79-.76a37.14,37.14,0,0,1,5.28,2.73c.9.57,1.73,1.22,2.61,1.81-2-1.32-.42-.31,0,.07s.7.61,1,.93c3.12,2.88,5.31,6.68,8.64,9.33a8.13,8.13,0,0,0,5.3,2.2,7.66,7.66,0,0,0,5.31-2.2,7.54,7.54,0,0,0,2.19-5.3c-.08-1.86-.67-4.09-2.19-5.3-2.52-2-4.28-4.7-6.42-7.08a42.78,42.78,0,0,0-27.58-13.65,7.5,7.5,0,0,0-5.3,2.2,7.63,7.63,0,0,0-2.2,5.3,7.55,7.55,0,0,0,2.2,5.3,8.62,8.62,0,0,0,5.3,2.2Z" transform="translate(-8.8 -6.11)"/><ellipse class="cls-8" cx="46.61" cy="253.91" rx="30" ry="19.36"/><ellipse class="cls-8" cx="327.65" cy="244.02" rx="30" ry="19.36"/><path class="cls-7" d="M174.7,260.88a64.39,64.39,0,0,0,40.84,1.61,5,5,0,0,0-2.66-9.64c-1.51.44-3,.82-4.57,1.14-.78.16-1.56.3-2.34.43l-1.07.16c1.18-.19-.25,0-.4,0a62.81,62.81,0,0,1-9.6.34c-1.6-.07-3.19-.21-4.78-.39-1-.11.43.08-.18,0l-1.07-.17q-1.29-.21-2.55-.48a55.91,55.91,0,0,1-9-2.67c-2.44-1-5.59,1-6.15,3.49-.65,2.88.88,5.13,3.49,6.15Z" transform="translate(-8.8 -6.11)"/><path class="cls-7" d="M182.75,233.83s-1.27,7.32,11.4,10.84c0,0,8.86-.14,11.4-10.84C205.55,233.83,194.71,221.87,182.75,233.83Z" transform="translate(-8.8 -6.11)"/><path class="cls-7" d="M217.3,235.55a25.83,25.83,0,0,1,18.84-5,2.51,2.51,0,0,0,2.5-2.5,2.57,2.57,0,0,0-2.5-2.5,29.92,29.92,0,0,0-21.36,5.64,2.58,2.58,0,0,0-.9,3.42,2.53,2.53,0,0,0,3.42.9Z" transform="translate(-8.8 -6.11)"/><path class="cls-7" d="M218.36,242.26a24.22,24.22,0,0,1,21.53,10.13,2.58,2.58,0,0,0,3.42.9,2.53,2.53,0,0,0,.9-3.42,29.27,29.27,0,0,0-25.85-12.61,2.57,2.57,0,0,0-2.5,2.5,2.52,2.52,0,0,0,2.5,2.5Z" transform="translate(-8.8 -6.11)"/><path class="cls-7" d="M215.7,226.94a17.34,17.34,0,0,1,.67-2.34c.07-.19.14-.38.22-.57.25-.63-.22.46.07-.15.17-.37.34-.73.54-1.09a18.28,18.28,0,0,1,1.28-2.07l.36-.49c-.35.47.07-.07.12-.13.26-.31.53-.62.81-.91a18.6,18.6,0,0,1,1.77-1.67c.1-.08.59-.46.13-.12l.5-.36c.33-.23.67-.46,1-.67a17.68,17.68,0,0,1,2.06-1.1l.28-.12-.13,0L226,215c.41-.15.83-.29,1.25-.41a2.5,2.5,0,0,0-1.32-4.82,21.65,21.65,0,0,0-15,15.85,2.5,2.5,0,1,0,4.82,1.33Z" transform="translate(-8.8 -6.11)"/><path class="cls-7" d="M178.38,230.12A70.7,70.7,0,0,0,157,218a2.51,2.51,0,0,0-3.07,1.74,2.56,2.56,0,0,0,1.74,3.08,63.73,63.73,0,0,1,19.18,10.87,2.57,2.57,0,0,0,3.54,0,2.54,2.54,0,0,0,0-3.54Z" transform="translate(-8.8 -6.11)"/><path class="cls-7" d="M168.64,237.66c-4.18-.89-7.44-4.11-11.37-5.66a21,21,0,0,0-13.62-.46c-3.07.93-1.76,5.75,1.33,4.82a16,16,0,0,1,11.47.7c3.68,1.75,6.78,4.56,10.86,5.42a2.56,2.56,0,0,0,3.08-1.75,2.52,2.52,0,0,0-1.75-3.07Z" transform="translate(-8.8 -6.11)"/><path class="cls-7" d="M168.69,244.27c-5.9-.85-12-1.11-17.52,1.39-4.4,2-8.17,6-9.11,10.8a2.56,2.56,0,0,0,1.74,3.08,2.53,2.53,0,0,0,3.08-1.75A11,11,0,0,1,153.7,250c4.24-1.82,9.2-1.53,13.66-.89a2.59,2.59,0,0,0,3.08-1.75,2.52,2.52,0,0,0-1.75-3.07Z" transform="translate(-8.8 -6.11)"/><path class="cls-7" d="M190.75,240.63a16.1,16.1,0,0,1,.54,2.15c.08.42,0-.59,0,.15,0,.15,0,.31.05.46,0,.35,0,.71,0,1.06s0,.78,0,1.16c0,.16,0,.32,0,.47s.07-.32,0,.15a20,20,0,0,1-.53,2.16q-.17.51-.36,1c.1-.24.05-.11,0,.05s-.16.36-.25.53a14.16,14.16,0,0,1-1.14,1.91l-.28.38c.26-.34-.07.07-.12.13-.23.27-.47.52-.71.77s-.56.55-.86.8l-.36.29c.37-.29-.24.15-.25.17a2.56,2.56,0,0,0-.9,3.42,2.52,2.52,0,0,0,3.42.89,17.36,17.36,0,0,0,6.67-19.42,2.56,2.56,0,0,0-3.08-1.75,2.52,2.52,0,0,0-1.74,3.08Z" transform="translate(-8.8 -6.11)"/><path class="cls-7" d="M192.62,239.22c-1.12,4.48-2.28,9.41-.77,13.94,1.24,3.73,4.1,7.16,8.11,8a2.55,2.55,0,0,0,3.07-1.74,2.52,2.52,0,0,0-1.75-3.08,7,7,0,0,1-1-.26c-.11,0-.36-.15-.12,0q-.28-.13-.57-.3a4.55,4.55,0,0,1-1.29-1.07c-.12-.13-.24-.26-.35-.4s0,.07-.17-.23a10.57,10.57,0,0,1-.56-.91,6.74,6.74,0,0,1-.71-1.76c-1-3.53.07-7.33.93-10.77a2.56,2.56,0,0,0-1.75-3.08,2.52,2.52,0,0,0-3.07,1.75Z" transform="translate(-8.8 -6.11)"/><circle class="cls-9" cx="89.9" cy="206.66" r="43.29"/><circle class="cls-10" cx="272.42" cy="206.66" r="43.29"/><g class="cls-11"><circle class="cls-12" cx="89.9" cy="206.66" r="37.68"/><circle class="cls-13" cx="95.51" cy="206.66" r="37.68"/></g><g class="cls-14"><circle class="cls-12" cx="272.42" cy="206.66" r="37.68"/><circle class="cls-13" cx="278.03" cy="206.66" r="37.68"/></g><circle class="cls-15" cx="110.02" cy="179.22" r="5.93"/><circle class="cls-15" cx="293.72" cy="179.22" r="5.93"/></svg>