<svg xmlns="http://www.w3.org/2000/svg" viewBox="0 0 344.06 344.06"><defs><style>.cls-1{fill:#c4dff6;}.cls-14,.cls-2,.cls-8{fill:none;}.cls-14,.cls-2,.cls-4{stroke:#fff;}.cls-2,.cls-4,.cls-5,.cls-6{stroke-miterlimit:10;}.cls-2{stroke-width:4px;}.cls-3{opacity:0.2;font-size:40.04px;}.cls-3,.cls-7{fill:#4f4998;}.cls-3,.cls-4{font-family:GiddyupStd, Giddyup Std;}.cls-4{font-size:39.26px;}.cls-11,.cls-4{fill:#fff;}.cls-5{fill:#fff5ba;}.cls-5,.cls-6,.cls-8{stroke:#4f4998;}.cls-14,.cls-5,.cls-6,.cls-8{stroke-width:2px;}.cls-6{fill:#fffce8;}.cls-14,.cls-8{stroke-linecap:round;stroke-linejoin:round;}.cls-9{fill:#e8bcd9;}.cls-10{fill:#f6b5b2;}.cls-12{fill:#fffcf1;}.cls-13{fill:#f297a2;}</style></defs><title>LOGOGIN</title><g id="brillos"><circle class="cls-1" cx="172.03" cy="172.03" r="172.03"/><circle class="cls-2" cx="171.12" cy="173.57" r="153.97"/><text class="cls-3" transform="translate(137.12 264.92) rotate(-30.2) scale(1.07 1)">Gin.design</text><text class="cls-4" transform="matrix(0.88, -0.55, 0.53, 0.85, 142.24, 267.26)">Gin.design</text><path class="cls-5" d="M94.11,180l111.65-64.68,34.77,60L128.88,240s-36.79,24.46-68.73-.27C60.15,239.72,51.24,204.8,94.11,180Z" transform="translate(-5.79 -3.15)"/><path class="cls-6" d="M205.76,115.29s70.35-21.91,80.51-6.54c0,0,12.44,9.53-45.74,66.57Z" transform="translate(-5.79 -3.15)"/><path class="cls-7" d="M246.71,105.45s-5.92,13.3,6.67,12.44c0,0,3.62-1.51,5,.93,0,0,2.9,2-7.82,9.21,0,0-10.3,5-4.82,12.86,0,0,3.51,7,19.88-5.86,1.52-1.19,9.89-2.48,6.46,6.53,0,0,25.62-30.8,10.66-35.81C282.75,105.75,277.17,101.38,246.71,105.45Z" transform="translate(-5.79 -3.15)"/><path class="cls-7" d="M102.77,175s2.77,46.74,33.71,60.64l-9.9,5.73s-37.8-6.2-34.75-60Z" transform="translate(-5.79 -3.15)"/><line class="cls-8" x1="217" y1="141.56" x2="181.85" y2="161.92"/><line class="cls-8" x1="229.71" y1="163.49" x2="206.03" y2="177.2"/><circle class="cls-7" cx="129.75" cy="163.11" r="3.11"/><circle class="cls-7" cx="161.6" cy="146.61" r="3.11"/><path class="cls-8" d="M150,162.82a7.19,7.19,0,0,0,9-4.44" transform="translate(-5.79 -3.15)"/><circle class="cls-9" cx="121.94" cy="175.19" r="4.7"/><circle class="cls-9" cx="175.43" cy="146.61" r="4.7"/><line class="cls-8" x1="204.05" y1="120.53" x2="181.96" y2="133.32"/><path class="cls-10" d="M91.8,182.05s-5.81,46,34.55,58.85c0,0-34.69,22.77-65.79-1.6C60.56,239.3,52.76,205.61,91.8,182.05Z" transform="translate(-5.79 -3.15)"/><path class="cls-11" d="M208.73,115.61c25.75-7.86,37.68-9.44,37.68-9.44a15.59,15.59,0,0,0-.92,3.92c-14,1.53-35.28,8.43-35.28,8.43Z" transform="translate(-5.79 -3.15)"/><path class="cls-11" d="M236.36,165.08l4.17,7.49s28.29-28.28,28.9-30.73S255.85,159,236.36,165.08Z" transform="translate(-5.79 -3.15)"/><path class="cls-12" d="M111.52,202.78s7.63,22.76,24,30.83l83.06-48.9S127.34,241.57,111.52,202.78Z" transform="translate(-5.79 -3.15)"/><circle class="cls-10" cx="121.94" cy="175.19" r="3.47"/><circle class="cls-10" cx="175.43" cy="146.61" r="3.47"/><path class="cls-13" d="M61.2,238.54s26,20.66,61.11,2.78c0,0-13.75-1.42-23.69-19.25C98.62,222.07,86.92,245.89,61.2,238.54Z" transform="translate(-5.79 -3.15)"/><line class="cls-14" x1="209.06" y1="183.24" x2="229.71" y2="171.16"/><line class="cls-14" x1="133.83" y1="153.99" x2="154.49" y2="141.92"/><circle class="cls-14" cx="206.03" cy="185.34" r="0.31"/><circle class="cls-14" cx="129.75" cy="156.57" r="0.31"/><circle class="cls-14" cx="277.72" cy="106.94" r="0.31"/><circle class="cls-14" cx="57.95" cy="218.92" r="0.31"/><path class="cls-14" d="M86.71,188.8S73.24,196.56,64.87,218" transform="translate(-5.79 -3.15)"/><circle class="cls-14" cx="128.38" cy="162.44" r="0.15"/><circle class="cls-14" cx="160.55" cy="146.06" r="0.15"/></g></svg>